<?xml version="1.0" encoding="UTF-8" standalone="no"?>
<!-- Created with Inkscape (http://www.inkscape.org/) -->

<svg
   version="1.1"
   id="svg2"
   width="1081.4933"
   height="291.336"
   viewBox="0 0 1081.4933 291.336"
   xmlns="http://www.w3.org/2000/svg"
   xmlns:svg="http://www.w3.org/2000/svg">
  <defs
     id="defs6">
    <clipPath
       clipPathUnits="userSpaceOnUse"
       id="clipPath18">
      <path
         d="M 0,218.502 H 811.12 V 0 H 0 Z"
         id="path16" />
    </clipPath>
  </defs>
  <g
     id="g10"
     transform="matrix(1.3333333,0,0,-1.3333333,0,291.336)">
    <g
       id="g12">
      <g
         id="g14"
         clip-path="url(#clipPath18)">
        <g
           id="g20"
           transform="translate(274.2332,160.9121)">
          <path
             d="m 0,0 c 0,2.197 -1.255,3.453 -3.453,3.453 h -5.963 v 22.753 h 24.323 c 7.376,0 11.299,-3.609 11.299,-9.102 v -1.098 c 0,-0.784 -0.157,-1.883 -0.157,-1.883 h 0.314 c 3.766,5.649 10.984,13.966 23.695,13.966 10.2,0 18.359,-4.55 22.596,-13.652 h 0.314 c 4.237,6.748 13.809,13.652 25.892,13.652 14.751,0 26.206,-8.003 26.206,-30.286 v -26.205 c 0,-2.198 1.256,-3.453 3.452,-3.453 h 5.964 v -22.753 h -25.108 c -8.003,0 -11.455,3.452 -11.455,11.455 v 36.405 c 0,5.964 -1.099,10.201 -6.277,10.201 -8.16,0 -12.868,-6.591 -14.594,-15.536 -0.628,-2.824 -0.941,-5.806 -0.941,-9.101 V -54.608 H 48.959 v 47.86 c 0,5.964 -1.098,10.201 -6.276,10.201 -8.004,0 -12.554,-6.277 -14.437,-14.908 -0.628,-2.982 -1.099,-6.277 -1.099,-9.729 V -54.608 H 0 Z"
             style="fill:#be4f29;fill-opacity:1;fill-rule:nonzero;stroke:none"
             id="path22" />
        </g>
        <g
           id="g24"
           transform="translate(462.0696,158.2446)">
          <path
             d="M 0,0 C 0,5.021 -3.923,10.357 -9.572,10.357 -17.418,10.357 -21.341,5.963 -23.067,0 Z m -9.572,30.757 c 23.852,0 37.347,-16.634 37.347,-39.074 0,-2.667 -0.628,-8.16 -0.628,-8.16 h -50.999 c 2.04,-10.2 10.201,-14.75 18.831,-14.75 11.612,0 21.499,8.474 21.499,8.474 l 10.827,-18.204 c 0,0 -13.025,-12.867 -34.523,-12.867 -28.874,0 -44.409,20.87 -44.409,42.369 0,23.695 16.006,42.212 42.055,42.212"
             style="fill:#be4f29;fill-opacity:1;fill-rule:nonzero;stroke:none"
             id="path26" />
        </g>
        <g
           id="g28"
           transform="translate(502.0852,160.9121)">
          <path
             d="m 0,0 c 0,2.197 -1.255,3.453 -3.452,3.453 h -5.963 v 22.753 h 24.009 c 7.376,0 11.455,-2.981 11.455,-10.357 v -4.237 c 0,-2.51 -0.314,-4.08 -0.314,-4.08 h 0.314 c 3.453,10.985 13.652,20.086 25.735,20.086 1.57,0 3.139,-0.313 3.139,-0.313 V 0.628 c 0,0 -2.197,0.471 -5.492,0.471 -6.434,0 -16.948,-2.04 -20.871,-14.123 -0.942,-2.982 -1.413,-6.591 -1.413,-10.985 V -54.608 H 0 Z"
             style="fill:#be4f29;fill-opacity:1;fill-rule:nonzero;stroke:none"
             id="path30" />
        </g>
        <g
           id="g32"
           transform="translate(572.6995,160.9121)">
          <path
             d="m 0,0 c 0,2.197 -1.255,3.453 -3.452,3.453 h -5.963 v 22.753 h 24.008 c 7.376,0 11.455,-2.981 11.455,-10.357 v -4.237 c 0,-2.51 -0.313,-4.08 -0.313,-4.08 h 0.313 c 3.453,10.985 13.653,20.086 25.736,20.086 1.569,0 3.138,-0.313 3.138,-0.313 V 0.628 c 0,0 -2.197,0.471 -5.492,0.471 -6.433,0 -16.947,-2.04 -20.871,-14.123 -0.941,-2.982 -1.412,-6.591 -1.412,-10.985 V -54.608 H 0 Z"
             style="fill:#be4f29;fill-opacity:1;fill-rule:nonzero;stroke:none"
             id="path34" />
        </g>
        <path
           d="m 647.394,218.502 h 22.754 v -21.969 h -22.754 z m -2.04,-57.59 c 0,2.197 -1.255,3.453 -3.452,3.453 h -5.963 v 22.753 h 25.108 c 8.003,0 11.455,-3.452 11.455,-11.455 V 132.51 c 0,-2.198 1.256,-3.453 3.452,-3.453 h 5.964 V 106.304 H 656.81 c -8.004,0 -11.456,3.452 -11.456,11.455 z"
           style="fill:#be4f29;fill-opacity:1;fill-rule:nonzero;stroke:none"
           id="path36" />
        <g
           id="g38"
           transform="translate(693.3709,165.9336)">
          <path
             d="M 0,0 H -10.356 V 21.185 H 0.785 V 42.997 H 27.147 V 21.185 H 44.096 V 0 H 27.147 v -26.206 c 0,-9.101 9.259,-10.357 14.437,-10.357 2.197,0 3.609,0.158 3.609,0.158 v -23.539 c 0,0 -2.981,-0.471 -7.375,-0.471 -12.867,0 -37.818,3.453 -37.818,30.6 z"
             style="fill:#be4f29;fill-opacity:1;fill-rule:nonzero;stroke:none"
             id="path40" />
        </g>
        <g
           id="g42"
           transform="translate(755.826,165.9336)">
          <path
             d="M 0,0 H -10.356 V 21.185 H 0.785 V 42.997 H 27.147 V 21.185 H 44.096 V 0 H 27.147 v -26.206 c 0,-9.101 9.259,-10.357 14.437,-10.357 2.197,0 3.609,0.158 3.609,0.158 v -23.539 c 0,0 -2.981,-0.471 -7.375,-0.471 -12.867,0 -37.818,3.453 -37.818,30.6 z"
             style="fill:#be4f29;fill-opacity:1;fill-rule:nonzero;stroke:none"
             id="path44" />
        </g>
        <g
           id="g46"
           transform="translate(262.1013,13.0781)">
          <path
             d="m 0,0 26.424,31.629 c 3.47,4.27 6.005,6.272 6.005,6.272 v 0.267 c 0,0 -1.734,-0.267 -6.005,-0.267 h -2.536 c -1.868,0 -2.935,-1.067 -2.935,-2.936 V 32.163 H 0.267 V 47.51 c 0,6.806 2.936,9.742 9.742,9.742 h 52.58 V 45.642 L 36.299,14.013 C 32.963,9.876 30.161,7.741 30.161,7.741 V 7.474 c 0,0 1.734,0.4 6.138,0.4 h 5.072 c 1.868,0 2.936,1.067 2.936,2.937 v 2.801 H 64.992 V -1.734 c 0,-6.807 -2.936,-9.743 -9.742,-9.743 H 0 Z"
             style="fill:#be4f29;fill-opacity:1;fill-rule:nonzero;stroke:none"
             id="path48" />
        </g>
        <g
           id="g50"
           transform="translate(362.4573,17.6162)">
          <path
             d="m 0,0 c 6.005,0 11.344,6.539 11.344,12.144 v 1.068 H 9.208 C 1.868,13.212 -6.539,11.21 -6.539,5.738 -6.539,2.535 -4.538,0 0,0 m 10.143,27.225 h 0.933 v 0.8 c 0,6.539 -3.069,8.942 -8.807,8.942 -2.937,0 -6.006,-0.668 -6.006,-3.337 V 30.561 H -25.09 v 7.606 c 0,15.348 19.485,16.148 27.359,16.148 24.021,0 31.895,-12.278 31.895,-28.025 V 6.272 c 0,-1.869 1.067,-2.936 2.936,-2.936 h 5.071 V -16.015 H 22.153 c -6.673,0 -9.075,4.137 -9.075,7.206 v 1.202 h -0.266 c 0,0 -4.805,-10.009 -19.218,-10.009 -12.812,0 -23.355,8.541 -23.355,22.153 0,20.418 29.227,22.688 39.904,22.688"
             style="fill:#be4f29;fill-opacity:1;fill-rule:nonzero;stroke:none"
             id="path52" />
        </g>
        <g
           id="g54"
           transform="translate(411.4348,48.043)">
          <path
             d="m 0,0 c 0,1.869 -1.067,2.937 -2.937,2.937 h -5.071 v 19.35 h 20.686 c 6.272,0 9.608,-3.069 9.608,-7.74 v -0.935 c 0,-0.667 -0.133,-1.601 -0.133,-1.601 h 0.267 c 3.203,4.804 9.342,11.878 20.151,11.878 8.675,0 15.615,-3.87 19.218,-11.611 h 0.267 c 3.603,5.739 11.744,11.611 22.019,11.611 12.545,0 22.287,-6.807 22.287,-25.757 v -22.286 c 0,-1.869 1.068,-2.937 2.936,-2.937 h 5.071 v -19.35 H 93.017 c -6.806,0 -9.743,2.935 -9.743,9.742 v 30.961 c 0,5.071 -0.933,8.675 -5.337,8.675 -6.94,0 -10.944,-5.606 -12.412,-13.212 -0.534,-2.403 -0.8,-4.938 -0.8,-7.741 V -46.441 H 41.638 v 40.703 c 0,5.071 -0.935,8.675 -5.339,8.675 -6.806,0 -10.676,-5.338 -12.278,-12.679 -0.534,-2.535 -0.934,-5.338 -0.934,-8.274 V -46.441 H 0 Z"
             style="fill:#be4f29;fill-opacity:1;fill-rule:nonzero;stroke:none"
             id="path56" />
        </g>
        <g
           id="g58"
           transform="translate(567.973,19.084)">
          <path
             d="M 0,0 C 7.206,0 13.479,5.872 13.479,16.415 13.479,26.69 8.007,33.363 0,33.363 -6.939,33.363 -13.479,28.292 -13.479,16.415 -13.479,8.141 -9.075,0 0,0 m -35.899,55.65 c 0,1.869 -1.068,2.936 -2.936,2.936 h -5.071 v 19.351 h 21.352 c 6.806,0 9.742,-2.936 9.742,-9.743 V 52.047 c 0,-3.47 -0.267,-5.872 -0.267,-5.872 h 0.267 c 0,0 6.406,6.673 18.55,6.673 18.683,0 30.961,-14.68 30.961,-36.033 0,-21.752 -13.745,-35.899 -32.028,-35.899 -12.679,0 -18.817,7.073 -18.817,7.073 h -0.267 c 0,0 0.134,-1.735 0.134,-3.87 v -1.601 h -21.62 z"
             style="fill:#be4f29;fill-opacity:1;fill-rule:nonzero;stroke:none"
             id="path60" />
        </g>
        <g
           id="g62"
           transform="translate(647.91,19.2178)">
          <path
             d="M 0,0 C 8.408,0 15.614,6.271 15.614,16.548 15.614,26.957 8.408,33.496 0,33.496 -8.407,33.496 -15.613,26.957 -15.613,16.548 -15.613,6.271 -8.407,0 0,0 m -0.133,52.714 c 21.753,0 38.968,-14.547 38.968,-36.166 0,-21.486 -17.215,-35.766 -38.835,-35.766 -21.619,0 -38.835,14.28 -38.835,35.766 0,21.619 17.216,36.166 38.702,36.166"
             style="fill:#be4f29;fill-opacity:1;fill-rule:nonzero;stroke:none"
             id="path64" />
        </g>
        <g
           id="g66"
           transform="translate(696.4861,48.043)">
          <path
             d="m 0,0 c 0,1.869 -1.067,2.937 -2.937,2.937 h -5.071 v 19.35 h 20.553 c 6.271,0 9.608,-3.069 9.608,-7.74 v -0.935 c 0,-0.667 -0.133,-1.601 -0.133,-1.601 h 0.266 c 3.203,5.339 9.61,11.878 21.753,11.878 13.88,0 24.69,-6.407 24.69,-25.757 v -22.286 c 0,-1.869 1.067,-2.937 2.935,-2.937 h 5.071 v -19.35 H 55.383 c -6.806,0 -9.742,2.935 -9.742,9.742 v 30.56 c 0,6.407 -2.536,9.076 -7.607,9.076 -7.207,0 -11.61,-4.004 -13.612,-9.876 -0.935,-2.669 -1.335,-5.739 -1.335,-9.075 V -46.441 H 0 Z"
             style="fill:#be4f29;fill-opacity:1;fill-rule:nonzero;stroke:none"
             id="path68" />
        </g>
        <path
           d="m 781.76,97.021 h 19.352 V 78.337 H 781.76 Z m -1.735,-48.978 c 0,1.869 -1.067,2.936 -2.936,2.936 h -5.072 V 70.33 h 21.353 c 6.807,0 9.742,-2.935 9.742,-9.742 V 23.889 c 0,-1.869 1.068,-2.937 2.937,-2.937 h 5.071 V 1.602 h -21.353 c -6.806,0 -9.742,2.935 -9.742,9.742 z"
           style="fill:#be4f29;fill-opacity:1;fill-rule:nonzero;stroke:none"
           id="path70" />
        <g
           id="g72"
           transform="translate(219.4163,125.6475)">
          <path
             d="m 0,0 v 24.563 c 0,14.125 5.117,22.108 18.832,22.108 h 3.07 v 14.943 h -4.708 c -20.674,0 -35.821,-11.668 -35.821,-36.027 V -0.204 c 0,-13.041 -2.603,-21.633 -19.575,-22.447 -7.885,27.656 -70.79,58.954 -118.262,75.48 -7.745,-7.952 -15.384,-20.106 -4.217,-30.365 0,0 9.687,-7.627 5.006,-14.977 -2.646,-4.154 4.013,-9.474 20.047,-21.099 0,0 -41.889,9.219 -33.07,27.267 0,0 -33.17,22.238 -15.388,46.801 0.16,0.222 0.318,0.428 0.477,0.643 -7.658,1.925 -14.085,3.091 -18.694,3.343 -24.451,1.336 -23.383,-25.654 7.616,-51.041 -13.582,-4.794 -6.988,-24.452 32.472,-41.956 -39.46,-17.504 -46.054,-37.161 -32.472,-41.955 -30.999,-25.387 -32.067,-52.378 -7.616,-51.041 4.609,0.251 11.036,1.418 18.694,3.343 -0.159,0.214 -0.317,0.421 -0.477,0.643 -17.782,24.563 15.388,46.8 15.388,46.8 -8.819,18.048 33.07,27.267 33.07,27.267 -16.034,-11.624 -22.693,-16.945 -20.047,-21.098 4.681,-7.35 -5.006,-14.978 -5.006,-14.978 -11.167,-10.258 -3.528,-22.413 4.217,-30.364 44.822,15.603 103.411,44.376 116.451,70.818 19.192,-0.487 21.386,-9.802 21.386,-22.493 V -88.02 c 0,-26.405 17.604,-36.026 35.821,-36.026 h 4.708 v 14.942 H 19.241 C 7.369,-109.104 0,-101.12 0,-86.177 v 24.359 C 0,-44.01 -5.731,-33.774 -20.47,-30.704 -6.141,-28.043 0,-16.785 0,0"
             style="fill:#be4f29;fill-opacity:1;fill-rule:nonzero;stroke:none"
             id="path74" />
        </g>
      </g>
    </g>
  </g>
</svg>
