<?xml version="1.0" encoding="UTF-8" standalone="no"?>
<svg
   id="Layer_1"
   data-name="Layer 1"
   viewBox="0 0 241.32 188.54"
   version="1.1"
   sodipodi:docname="orange-moth.svg"
   inkscape:version="1.2 (dc2aedaf03, 2022-05-15)"
   xmlns:inkscape="http://www.inkscape.org/namespaces/inkscape"
   xmlns:sodipodi="http://sodipodi.sourceforge.net/DTD/sodipodi-0.dtd"
   xmlns="http://www.w3.org/2000/svg"
   xmlns:svg="http://www.w3.org/2000/svg"
   xmlns:rdf="http://www.w3.org/1999/02/22-rdf-syntax-ns#"
   xmlns:cc="http://creativecommons.org/ns#"
   xmlns:dc="http://purl.org/dc/elements/1.1/">
  <sodipodi:namedview
     id="namedview22"
     pagecolor="#505050"
     bordercolor="#eeeeee"
     borderopacity="1"
     inkscape:showpageshadow="0"
     inkscape:pageopacity="0"
     inkscape:pagecheckerboard="0"
     inkscape:deskcolor="#505050"
     showgrid="false"
     inkscape:zoom="4.3969451"
     inkscape:cx="84.49048"
     inkscape:cy="94.383712"
     inkscape:window-width="1920"
     inkscape:window-height="1009"
     inkscape:window-x="-8"
     inkscape:window-y="-8"
     inkscape:window-maximized="1"
     inkscape:current-layer="Layer_1" />
  <defs
     id="defs15">
    <style
       id="style13">.cls-1{fill:#fff;}</style>
  </defs>
  <title
     id="title17">Moth_white</title>
  <path
     class="cls-1"
     d="M 219.42,64.49 V 39.93 c 0,-14.13 5.11,-22.11 18.83,-22.11 h 3.07 V 2.88 h -4.71 c -20.67,0 -35.82,11.66 -35.82,36 v 25.81 c 0,13 -2.6,21.64 -19.58,22.45 C 173.33,59.48 110.42,28.19 63,11.66 c -7.74,8 -15.38,20.11 -4.21,30.37 0,0 9.68,7.62 5,15 -2.64,4.16 4,9.48 20.05,21.1 0,0 -41.89,-9.22 -33.07,-27.27 0,0 -33.17,-22.23 -15.39,-46.8 L 35.86,3.42 A 107,107 0 0 0 17.11,0.05 c -24.4499998,-1.34 -23.3799998,25.65 7.62,51 -13.58,4.79 -7,24.45 32.47,42 -39.46,17.51 -46.05,37.17 -32.47,42 -30.9999998,25.39 -32.0699998,52.38 -7.62,51 a 107,107 0 0 0 18.7,-3.34 c -0.16,-0.22 -0.32,-0.42 -0.48,-0.65 C 17.55,157.5 50.72,135.26 50.72,135.26 41.9,117.21 83.79,108 83.79,108 c -16,11.62 -22.69,16.94 -20.05,21.1 4.68,7.35 -5,15 -5,15 -11.17,10.26 -3.53,22.42 4.21,30.37 44.82,-15.61 103.41,-44.38 116.45,-70.82 19.19,0.49 21.39,9.8 21.39,22.49 v 26.41 c 0,26.4 17.6,36 35.82,36 h 4.71 v -14.96 h -2.66 c -11.87,0 -19.24,-8 -19.24,-22.92 v -24.36 c 0,-17.81 -5.74,-28 -20.47,-31.12 14.33,-2.66 20.47,-13.92 20.47,-30.7 z"
     id="path19"
     style="fill:#a55433;fill-opacity:1" />
  <metadata
     id="metadata2110">
    <rdf:RDF>
      <cc:Work
         rdf:about="">
        <dc:title>Moth_white</dc:title>
      </cc:Work>
    </rdf:RDF>
  </metadata>
</svg>
