<svg id="Layer_1" data-name="Layer 1" xmlns="http://www.w3.org/2000/svg" viewBox="0 0 241.32 188.54"><defs><style>.cls-1{fill:#fff;}</style></defs><title>Moth_white</title><path class="cls-1" d="M219.42,64.49V39.93c0-14.13,5.11-22.11,18.83-22.11h3.07V2.88h-4.71c-20.67,0-35.82,11.66-35.82,36V64.69c0,13-2.6,21.64-19.58,22.45C173.33,59.48,110.42,28.19,63,11.66c-7.74,8-15.38,20.11-4.21,30.37,0,0,9.68,7.62,5,15-2.64,4.16,4,9.48,20.05,21.1,0,0-41.89-9.22-33.07-27.27,0,0-33.17-22.23-15.39-46.8l.48-.64A107,107,0,0,0,17.11.05c-24.45-1.34-23.38,25.65,7.62,51-13.58,4.79-7,24.45,32.47,42-39.46,17.51-46.05,37.17-32.47,42-31,25.39-32.07,52.38-7.62,51a107,107,0,0,0,18.7-3.34c-.16-.22-.32-.42-.48-.65-17.78-24.56,15.39-46.8,15.39-46.8C41.9,117.21,83.79,108,83.79,108c-16,11.62-22.69,16.94-20.05,21.1,4.68,7.35-5,15-5,15-11.17,10.26-3.53,22.42,4.21,30.37,44.82-15.61,103.41-44.38,116.45-70.82,19.19.49,21.39,9.8,21.39,22.49v26.41c0,26.4,17.6,36,35.82,36h4.71V173.59h-2.66c-11.87,0-19.24-8-19.24-22.92V126.31c0-17.81-5.74-28-20.47-31.12C213.28,92.53,219.42,81.27,219.42,64.49Z"/></svg>